<?xml version="1.0" standalone="no"?>
<!DOCTYPE svg PUBLIC "-//W3C//DTD SVG 20010904//EN"
 "http://www.w3.org/TR/2001/REC-SVG-20010904/DTD/svg10.dtd">
<svg version="1.0" xmlns="http://www.w3.org/2000/svg"
 width="460.000000pt" height="460.000000pt" viewBox="0 0 460.000000 460.000000"
 preserveAspectRatio="xMidYMid meet">
<metadata>
Created by potrace 1.14, written by Peter Selinger 2001-2017
</metadata>
<g transform="translate(0.000000,460.000000) scale(0.100000,-0.100000)"
fill="#000000" stroke="none">
<path d="M0 2300 l0 -2300 2300 0 2300 1 0 2299 0 2300 -2300 0 -2300 0 0
-2300z m2547 1284 c-3 -3 -12 -4 -19 -1 -8 3 -5 6 6 6 11 1 17 -2 13 -5z m177
-19 c11 -8 35 -15 53 -15 18 0 33 -3 33 -7 0 -13 72 -42 110 -45 19 -2 34 -7
32 -12 -2 -4 12 -19 31 -31 39 -27 69 -84 72 -135 1 -20 5 -42 9 -49 4 -6 5
-18 2 -26 -3 -8 0 -15 7 -15 8 0 8 -3 -2 -9 -11 -7 -12 -25 -7 -86 4 -42 11
-88 17 -102 12 -32 15 -125 5 -141 -4 -7 -18 -12 -31 -12 -21 0 -23 -4 -24
-47 0 -27 -7 -77 -15 -113 -8 -35 -14 -66 -12 -68 10 -10 50 100 54 147 5 62
12 71 60 71 22 0 32 -5 32 -15 0 -17 -9 -19 -42 -6 -22 8 -23 7 -23 -43 -1
-62 -8 -112 -24 -149 -16 -41 -14 -57 9 -57 11 0 20 -7 20 -15 0 -8 -5 -15
-11 -15 -6 0 -9 -9 -6 -20 3 -11 0 -20 -6 -20 -6 0 -7 -3 -4 -7 4 -3 -1 -12
-11 -19 -14 -11 -14 -15 -4 -22 10 -7 5 -14 -20 -29 -27 -16 -36 -30 -47 -74
-31 -129 -76 -235 -145 -343 -34 -53 -36 -63 -56 -265 -5 -53 -12 -121 -16
-151 -3 -30 -6 -81 -5 -113 0 -41 -7 -71 -21 -99 -16 -31 -18 -42 -8 -48 7 -4
9 -16 5 -29 -4 -13 -2 -21 6 -21 8 0 8 -4 1 -12 -5 -8 -6 -22 -1 -33 4 -11 8
-14 8 -7 1 6 6 12 11 12 6 0 9 -3 9 -7 -1 -5 0 -10 1 -13 10 -26 6 -43 -11
-47 -11 -3 -18 -11 -15 -18 4 -13 -27 -45 -44 -45 -6 0 -9 -5 -8 -11 2 -6 -11
-16 -28 -23 -37 -13 -84 -50 -84 -65 0 -15 5 -14 42 5 28 15 30 15 25 0 -5
-13 -3 -14 13 -4 26 17 36 4 21 -28 -16 -36 -10 -38 22 -9 29 28 59 32 76 11
9 -11 2 -30 -29 -87 -22 -41 -58 -110 -81 -154 -22 -44 -55 -107 -74 -140 -51
-87 -85 -163 -85 -185 0 -11 -11 -38 -25 -60 -14 -22 -25 -43 -25 -48 0 -4
-18 -27 -40 -50 -22 -22 -40 -44 -40 -47 0 -3 -18 -24 -41 -47 -50 -51 -93
-58 -163 -28 -26 11 -60 20 -75 20 -16 0 -43 5 -61 11 -18 7 -35 8 -39 3 -8
-12 -30 -18 -63 -17 -16 0 -28 -3 -28 -7 0 -15 -56 -4 -102 20 -32 16 -48 30
-48 43 0 12 -5 17 -13 14 -7 -3 -22 2 -32 10 -19 14 -19 14 5 8 21 -5 25 -2
26 17 1 13 4 37 7 53 3 17 6 35 6 41 1 6 12 17 25 24 28 15 46 46 21 36 -8 -3
-15 -2 -15 3 0 5 11 12 25 15 14 4 25 13 25 20 0 8 7 16 15 20 8 3 15 17 15
31 0 31 17 33 22 3 2 -12 9 -23 17 -26 9 -3 11 2 6 17 -4 13 -2 21 5 21 7 0
10 14 8 38 -3 34 -1 37 25 40 20 3 26 7 19 15 -11 13 -10 43 2 70 5 10 4 23
-3 31 -6 7 -8 16 -4 19 3 4 -1 9 -9 12 -11 5 -12 17 -6 63 4 31 9 66 10 77 2
14 12 21 31 23 29 4 34 11 17 28 -7 7 -4 16 10 29 11 10 20 26 20 36 0 10 12
31 26 48 22 27 25 39 23 89 -3 79 9 133 32 139 10 3 16 10 13 15 -3 5 1 17 9
26 14 16 27 48 31 78 1 7 5 17 9 20 4 4 7 22 7 41 0 18 4 41 9 51 20 36 25 59
25 117 1 48 -3 63 -18 76 -18 15 -18 17 -3 40 10 13 17 33 17 45 0 12 7 24 15
28 8 3 23 21 32 41 9 19 20 35 25 35 26 0 -21 59 -48 60 -8 0 -9 11 -5 33 6
30 10 32 47 32 33 0 39 3 39 22 0 11 3 25 8 29 4 4 7 -5 7 -19 0 -31 22 -36
42 -9 7 10 27 24 45 31 20 8 33 21 35 34 2 18 12 23 52 29 119 17 98 31 -28
18 -101 -10 -136 -4 -136 26 0 8 -11 20 -25 26 -29 13 -29 11 -10 66 11 32 13
53 6 85 -8 32 -7 47 4 64 8 12 15 33 15 46 0 12 4 27 10 33 5 5 12 39 16 74 3
36 12 103 20 149 8 46 14 99 14 118 0 55 15 74 53 66 46 -8 29 5 -19 15 -32 7
-38 12 -36 30 2 14 -10 33 -37 58 -23 20 -41 45 -41 55 0 10 -12 26 -27 36
-16 10 -30 20 -33 24 -3 3 -27 16 -53 29 -27 14 -51 28 -53 32 -12 18 9 70 30
78 13 4 23 14 23 22 0 7 4 21 8 31 4 10 3 17 -5 17 -6 0 -8 5 -3 13 4 6 9 30
9 51 1 24 8 44 18 51 9 7 16 17 16 24 0 6 9 11 20 11 11 0 20 5 20 11 0 7 11
9 28 5 15 -3 21 -3 15 0 -7 3 -13 10 -13 16 0 9 57 5 103 -8 9 -3 17 -1 17 5
0 6 -10 11 -22 12 l-23 0 22 9 c11 5 69 7 128 5 67 -3 104 -1 100 5 -10 16 58
11 79 -5z m-615 -467 c20 -7 39 -17 42 -21 3 -5 9 -8 13 -8 3 1 14 1 24 0 13
0 14 -2 2 -6 -8 -3 -18 -10 -21 -15 -4 -6 -21 -6 -45 1 -22 6 -51 11 -65 11
-14 0 -34 9 -43 19 -17 19 -17 20 6 24 41 8 51 7 87 -5z m191 -183 c0 -11 -14
7 -31 40 -7 13 -3 12 10 -5 11 -14 21 -29 21 -35z m19 -60 c0 -5 -4 -3 -9 5
-5 8 -9 22 -9 30 0 16 17 -16 18 -35z m-550 -70 c7 -27 24 -66 40 -85 40 -51
48 -68 19 -42 -38 34 -75 110 -82 167 -7 58 5 37 23 -40z m349 -277 c7 -7 12
-19 12 -27 -1 -17 -47 -73 -71 -85 -27 -13 -57 -32 -72 -44 -10 -9 -22 -9 -38
-3 -13 5 -19 10 -12 10 6 1 9 10 6 21 -3 11 -2 28 2 37 5 10 8 21 7 25 -1 4 5
5 12 2 9 -3 17 3 21 17 4 13 17 31 29 41 24 20 86 24 104 6z m-91 -285 c-14
-32 -30 -59 -36 -61 -18 -6 -24 39 -7 57 9 10 16 22 16 27 0 5 7 20 16 33 11
16 19 20 27 12 7 -7 2 -28 -16 -68z m1078 -1493 c3 -5 1 -10 -4 -10 -6 0 -11
5 -11 10 0 6 2 10 4 10 3 0 8 -4 11 -10z m1092 -7 c-9 -9 -19 -14 -23 -11 -10
10 6 28 24 28 15 0 15 -1 -1 -17z m24 -36 c-6 -8 -8 -16 -5 -19 2 -3 -2 -8
-11 -11 -10 -4 -15 0 -15 12 0 18 12 28 34 30 5 1 3 -5 -3 -12z m-116 -17 c-3
-5 -12 -10 -18 -10 -7 0 -6 4 3 10 19 12 23 12 15 0z m-195 -30 c13 -8 13 -10
-2 -10 -9 0 -20 5 -23 10 -8 13 5 13 25 0z m-40 -21 c0 -14 -17 -10 -23 5 -4
10 -1 13 9 9 7 -3 14 -9 14 -14z m324 -4 c-7 -17 -20 -20 -28 -6 -4 5 0 12 6
14 23 9 28 7 22 -8z m43 -11 c-3 -3 -12 -4 -19 -1 -8 3 -5 6 6 6 11 1 17 -2
13 -5z m-100 -50 c-3 -3 -12 -4 -19 -1 -8 3 -5 6 6 6 11 1 17 -2 13 -5z m-200
-20 c-3 -3 -12 -4 -19 -1 -8 3 -5 6 6 6 11 1 17 -2 13 -5z m234 -12 c13 -5 6
-12 -27 -30 -24 -12 -44 -17 -44 -12 0 6 14 16 31 22 23 8 27 13 17 19 -15 10
0 11 23 1z m-890 -19 c13 -16 12 -17 -3 -4 -17 13 -22 21 -14 21 2 0 10 -8 17
-17z m624 7 c13 -5 14 -9 5 -9 -8 0 -24 4 -35 9 -13 5 -14 9 -5 9 8 0 24 -4
35 -9z m35 -50 c13 -9 13 -10 0 -10 -8 0 -22 5 -30 10 -13 9 -13 10 0 10 8 0
22 -5 30 -10z m150 0 c0 -5 -8 -10 -17 -10 -15 0 -16 2 -3 10 19 12 20 12 20
0z m-240 -10 c8 -5 11 -10 5 -10 -5 0 -17 5 -25 10 -8 5 -10 10 -5 10 6 0 17
-5 25 -10z m215 -10 l20 -9 -20 0 c-11 0 -27 4 -35 9 -13 9 -13 10 0 9 8 0 24
-4 35 -9z m-956 -14 c9 -11 9 -16 -1 -22 -7 -4 -10 -4 -6 1 4 4 3 14 -3 22 -6
7 -9 13 -6 13 2 0 10 -6 16 -14z m488 8 c-3 -3 -12 -4 -19 -1 -8 3 -5 6 6 6
11 1 17 -2 13 -5z m-357 -32 c-7 -3 -19 3 -28 13 -16 15 -15 16 12 4 15 -7 23
-15 16 -17z m-50 4 c0 -2 -7 -7 -16 -10 -8 -3 -12 -2 -9 4 6 10 25 14 25 6z
m656 -32 c-3 -9 -6 -18 -6 -20 0 -3 -4 -3 -10 1 -11 7 -2 35 12 35 6 0 7 -7 4
-16z m221 -10 c-3 -3 -12 -4 -19 -1 -8 3 -5 6 6 6 11 1 17 -2 13 -5z m-872
-14 c3 -5 1 -10 -4 -10 -6 0 -11 5 -11 10 0 6 2 10 4 10 3 0 8 -4 11 -10z
m825 -4 c0 -3 -4 -8 -10 -11 -5 -3 -10 -1 -10 4 0 6 5 11 10 11 6 0 10 -2 10
-4z m-930 -41 c11 -13 10 -14 -4 -9 -9 3 -16 10 -16 15 0 13 6 11 20 -6z m725
-5 c-3 -5 -18 -10 -33 -9 l-27 1 25 8 c35 11 42 11 35 0z m-700 -19 c-3 -6 3
-14 12 -20 24 -14 7 -14 -19 0 -17 9 -18 13 -7 20 18 11 22 11 14 0z m639 3
c9 -3 16 -11 16 -16 0 -7 -4 -7 -12 0 -7 6 -26 12 -43 15 -29 4 -29 4 -3 6 14
0 33 -2 42 -5z m301 -4 c-27 -12 -43 -12 -25 0 8 5 22 9 30 9 10 0 8 -3 -5 -9z
m210 0 c-3 -5 -10 -10 -16 -10 -5 0 -9 5 -9 10 0 6 7 10 16 10 8 0 12 -4 9
-10z m-1160 -60 c3 -6 -1 -7 -9 -4 -18 7 -21 14 -7 14 6 0 13 -4 16 -10z m679
1 c4 -5 -3 -7 -14 -4 -23 6 -26 13 -6 13 8 0 17 -4 20 -9z m-147 -7 c-3 -3
-12 -4 -19 -1 -8 3 -5 6 6 6 11 1 17 -2 13 -5z m433 -14 c8 -5 11 -10 5 -10
-5 0 -17 5 -25 10 -8 5 -10 10 -5 10 6 0 17 -5 25 -10z m-415 -10 c3 -5 -3
-10 -15 -10 -12 0 -18 5 -15 10 3 6 10 10 15 10 5 0 12 -4 15 -10z m-595 -25
c0 -12 -19 -12 -23 0 -4 9 -1 12 9 8 7 -3 14 -7 14 -8z m645 -27 c4 -3 2 -9
-3 -12 -5 -3 -15 1 -21 8 -10 11 -9 14 3 12 9 -1 18 -5 21 -8z m488 -5 c-7 -2
-19 -2 -25 0 -7 3 -2 5 12 5 14 0 19 -2 13 -5z m-546 -9 c-3 -3 -12 -4 -19 -1
-8 3 -5 6 6 6 11 1 17 -2 13 -5z m171 -16 c-6 -18 -28 -21 -28 -4 0 9 7 16 16
16 9 0 14 -5 12 -12z m-838 -17 c15 -29 -4 -34 -26 -8 -19 21 -19 21 0 7 18
-14 19 -13 13 3 -9 23 0 22 13 -2z m733 12 c-13 -2 -33 -2 -45 0 -13 2 -3 4
22 4 25 0 35 -2 23 -4z m-80 -30 c-7 -2 -21 -2 -30 0 -10 3 -4 5 12 5 17 0 24
-2 18 -5z m154 1 c-3 -3 -12 -4 -19 -1 -8 3 -5 6 6 6 11 1 17 -2 13 -5z m-34
-31 c-7 -2 -19 -2 -25 0 -7 3 -2 5 12 5 14 0 19 -2 13 -5z m442 -23 c-3 -5
-10 -10 -16 -10 -5 0 -9 5 -9 10 0 6 7 10 16 10 8 0 12 -4 9 -10z"/>
<path d="M2321 3404 c0 -11 3 -14 6 -6 3 7 2 16 -1 19 -3 4 -6 -2 -5 -13z"/>
<path d="M2730 3134 c-36 -7 -112 -36 -126 -48 -6 -6 -9 -18 -7 -27 4 -13 12
-14 46 -8 92 18 205 24 260 14 57 -10 107 -43 107 -70 0 -8 5 -15 11 -15 5 0
8 -4 4 -9 -3 -5 -1 -12 5 -16 16 -10 12 44 -6 74 -26 44 -102 88 -163 96 -30
3 -66 8 -80 10 -14 1 -37 1 -51 -1z"/>
<path d="M2571 3064 c0 -11 3 -14 6 -6 3 7 2 16 -1 19 -3 4 -6 -2 -5 -13z"/>
<path d="M2685 3007 c-49 -15 -97 -41 -114 -61 -8 -9 -22 -16 -33 -16 -17 0
-18 -2 -8 -15 10 -12 10 -19 2 -27 -7 -7 -12 -17 -12 -22 0 -6 8 1 18 15 67
102 217 143 375 105 12 -3 7 1 -11 9 -44 21 -167 27 -217 12z"/>
<path d="M2663 2961 c-17 -11 -35 -17 -39 -13 -4 4 -4 1 0 -5 4 -7 3 -13 -3
-13 -5 0 -15 -17 -21 -37 -7 -21 -16 -42 -21 -47 -14 -15 -11 -59 6 -82 19
-29 71 -38 98 -19 12 8 28 15 35 15 7 0 20 7 29 15 8 9 28 19 44 22 16 3 29 9
29 14 0 5 18 8 40 7 54 -2 86 29 72 70 -23 71 -197 119 -269 73z m189 -48 c34
-31 20 -56 -44 -77 -22 -7 -23 1 -3 20 8 9 15 29 15 45 0 33 6 36 32 12z m-56
-25 c-1 -13 -6 -22 -9 -20 -7 2 -7 10 0 30 8 20 13 14 9 -10z"/>
<path d="M2502 2785 c0 -11 4 -33 8 -50 l8 -30 0 30 c0 17 -3 39 -8 50 l-9 20
1 -20z"/>
<path d="M2530 2763 c0 -26 1 -26 14 -8 14 20 12 35 -5 35 -5 0 -9 -12 -9 -27z"/>
<path d="M2520 2683 c0 -12 54 -88 69 -97 5 -4 -6 17 -25 46 -42 62 -44 64
-44 51z"/>
<path d="M2910 2560 c-9 -6 -10 -10 -3 -10 6 0 15 5 18 10 8 12 4 12 -15 0z"/>
<path d="M2685 2535 c31 -15 112 -18 155 -6 15 4 -7 7 -55 7 -44 -1 -91 2
-105 6 -19 6 -18 4 5 -7z"/>
<path d="M2360 2514 c0 -8 5 -12 10 -9 6 3 10 10 10 16 0 5 -4 9 -10 9 -5 0
-10 -7 -10 -16z"/>
<path d="M2628 2203 c-29 -7 -21 -25 10 -21 15 2 26 7 25 13 -2 12 -12 14 -35
8z"/>
<path d="M2340 1980 c0 -6 7 -13 15 -17 24 -9 27 1 5 15 -13 8 -20 8 -20 2z"/>
<path d="M2412 1033 c-14 -5 -72 -87 -72 -101 0 -13 39 -23 66 -16 21 5 54 60
54 89 0 8 6 15 13 15 8 0 7 4 -3 10 -16 10 -37 12 -58 3z"/>
<path d="M2470 760 c-9 -6 -10 -10 -3 -10 6 0 15 5 18 10 8 12 4 12 -15 0z"/>
<path d="M2307 673 c-5 -8 -10 -58 -8 -80 1 -14 27 -18 34 -5 3 4 8 21 11 39
6 26 3 34 -13 42 -11 6 -22 8 -24 4z"/>
<path d="M1940 596 c0 -9 30 -14 35 -6 4 6 -3 10 -14 10 -12 0 -21 -2 -21 -4z"/>
</g>
</svg>
